<svg width="192" height="210" fill="none" xmlns="http://www.w3.org/2000/svg"><mask id="a" maskUnits="userSpaceOnUse" x="0" y="0" width="192" height="210"><path fill="#C4C4C4" d="M0 0h192v210H0z"/></mask><g mask="url(#a)"><path d="M141.156 0a6 6 0 016 6v164c0 22.091-17.908 40-40 40H6a6 6 0 01-6-6V76C0 34.026 34.026 0 76 0h65.156z" fill="#40C48D"/><path fill-rule="evenodd" clip-rule="evenodd" d="M137.018 115.5c5.523 0 10-4.477 10-10V47.727H186a6 6 0 016 6V164.5c0 24.939-20.064 45.192-44.931 45.497v-50.549c0-5.523-4.477-10-10-10h-32.693c-5.523 0-10 4.477-10 10V210h52.216-95.965V77.727c0-16.568 13.431-30 30-30H94.71V105.5c0 5.523 4.477 10 10 10h32.308z" fill="#2D9368"/><g filter="url(#filter0_d)"><path d="M137.105 115.5c5.522 0 9.999-4.477 9.999-10V47.727H94.567V105.5c0 5.523 4.477 10 10 10h32.538z" fill="#40C48D"/></g><g filter="url(#filter1_d)"><path d="M104.567 149.864c-5.523 0-10 4.477-10 10v50.552h52.924v-50.552c0-5.523-4.477-10-10-10h-32.924z" fill="#40C48D"/></g></g><defs><filter id="filter0_d" x="87.567" y="47.727" width="60.537" height="75.773" filterUnits="userSpaceOnUse" color-interpolation-filters="sRGB"><feFlood flood-opacity="0" result="BackgroundImageFix"/><feColorMatrix in="SourceAlpha" values="0 0 0 0 0 0 0 0 0 0 0 0 0 0 0 0 0 0 127 0"/><feOffset dx="-3" dy="4"/><feGaussianBlur stdDeviation="2"/><feColorMatrix values="0 0 0 0 0 0 0 0 0 0 0 0 0 0 0 0 0 0 0.25 0"/><feBlend in2="BackgroundImageFix" result="effect1_dropShadow"/><feBlend in="SourceGraphic" in2="effect1_dropShadow" result="shape"/></filter><filter id="filter1_d" x="87.567" y="148.864" width="60.925" height="68.552" filterUnits="userSpaceOnUse" color-interpolation-filters="sRGB"><feFlood flood-opacity="0" result="BackgroundImageFix"/><feColorMatrix in="SourceAlpha" values="0 0 0 0 0 0 0 0 0 0 0 0 0 0 0 0 0 0 127 0"/><feOffset dx="-3" dy="3"/><feGaussianBlur stdDeviation="2"/><feColorMatrix values="0 0 0 0 0 0 0 0 0 0 0 0 0 0 0 0 0 0 0.25 0"/><feBlend in2="BackgroundImageFix" result="effect1_dropShadow"/><feBlend in="SourceGraphic" in2="effect1_dropShadow" result="shape"/></filter></defs></svg>