<svg width="192" height="212" fill="none" xmlns="http://www.w3.org/2000/svg">
    <path d="M144.892 0a3 3 0 013 3v169c0 22.091-17.909 40-40 40H3a3 3 0 01-3-3V57C0 25.52 25.52 0 57 0h87.892z"
        fill="#40C48D" />
    <path d="M189 48.123a3 3 0 013 3V166.5c0 25.129-20.371 45.5-45.5 45.5H49.297V78.123c0-16.569 13.432-30 30-30H189z"
        fill="#2D9368" />
    <path d="M137.892 117.055c5.523 0 10-4.477 10-10V48.123h-53.19v58.932c0 5.523 4.478 10 10.001 10h33.189z"
        fill="#40C48D" />
    <mask id="a" maskUnits="userSpaceOnUse" x="49" y="48" width="143" height="164">
        <path
            d="M189 48.123a3 3 0 013 3V166.5c0 25.129-20.371 45.5-45.5 45.5H49.297V78.123c0-16.569 13.432-30 30-30H189z"
            fill="#2D9368" />
    </mask>
    <g mask="url(#a)">
        <path d="M104.703 150.871c-5.523 0-10 4.477-10 10V212h53.189v-51.129c0-5.523-4.477-10-10-10h-33.189z"
            fill="#40C48D" />
    </g>
</svg>